<?xml version="1.0" encoding="UTF-8"?>
<svg width="756px" height="122px" viewBox="0 0 756 122" version="1.1" xmlns="http://www.w3.org/2000/svg" xmlns:xlink="http://www.w3.org/1999/xlink">
    <title>编组 9@3x</title>
    <g id="页面-1" stroke="none" stroke-width="1" fill="none" fill-rule="evenodd">
        <g id="编组-9">
            <path d="M204,0 L181,40 L134.887,40 L88,121.143669 L41,121.143669 L111,0 L204,0 Z M88,0 L65,40 L30,40 L30,28 L22,28 L22,18 L38,18 L38,10 L34,10 L34,0 L88,0 Z M25,30 L25,40 L15,40 L15,30 L25,30 Z M6,28 L6,34 L0,34 L0,28 L6,28 Z M17,17 L17,23 L11,23 L11,17 L17,17 Z M6,12 L6,18 L0,18 L0,12 L6,12 Z M33,7 L33,15 L25,15 L25,7 L33,7 Z M21,3 L21,9 L15,9 L15,3 L21,3 Z" id="形状结合备份-9" fill="#3A87FF"></path>
            <g id="linkToX备份-4" transform="translate(244.000000, 5.000000)">
                <polygon id="路径" fill="#3A87FF" fill-rule="nonzero" points="0 107.055331 4.37348438e-14 10.1996463 20.5095498 3.15794312e-17 20.5095498 107.055331"></polygon>
                <path d="M40.7091469,13.0891858 C40.7091469,6.74736048 45.8502121,1.60629529 52.1920374,1.60629529 L52.2262564,1.60629529 C58.5680817,1.60629529 63.7091469,6.74736048 63.7091469,13.0891858 C63.7091469,19.4310111 58.5680817,24.5720763 52.2262564,24.5720763 L52.1920374,24.5720763 C45.8502121,24.5720763 40.7091469,19.4310111 40.7091469,13.0891858 Z M42.5467671,107.055331 L42.5467671,34.5656846 L61.7557515,34.5656846 L61.7557515,107.055331 L42.5467671,107.055331 Z" id="形状" fill="#3A87FF" fill-rule="nonzero"></path>
                <path d="M150.428714,107.055331 L131.21973,107.055331 L131.21973,70.0596736 C131.21973,64.6716539 131.21973,59.2836341 131.21973,53.8956144 C131.21973,51.6864754 129.428869,49.8956144 127.21973,49.8956144 L107.465824,49.8956144 C105.256685,49.8956144 103.465824,51.6864754 103.465824,53.8956144 C103.465824,60.6715401 103.465824,67.4474658 103.465824,74.2233915 L103.465824,107.055331 L84.2568392,107.055331 L84.2568392,34.1839097 C105.668515,34.1839097 119.579647,34.1839097 125.990238,34.1839097 C130.228519,34.1839097 134.217036,33.9957882 137.726151,35.5202095 C141.235266,37.0446308 143.809248,38.6838975 145.609378,41.0501634 C147.409508,43.4164293 148.662764,46.101231 149.369144,49.1045686 C150.075524,52.1079061 150.428714,56.4081394 150.428714,62.0052684 L150.428714,107.055331 Z" id="路径" fill="#3A87FF" fill-rule="nonzero"></path>
                <polygon id="路径" fill="#3A87FF" fill-rule="nonzero" points="173.277236 107.055331 173.277236 9.98512217 192.48622 1.48213654e-12 192.48622 60.0940536 214.976455 34.5656846 238.628798 34.5656846 213.814345 61.049661 240.406142 107.055331 219.693251 107.055331 201.441298 74.4964222 192.48622 83.8477231 192.48622 107.055331"></polygon>
                <polygon id="路径" fill="#3A87FF" fill-rule="nonzero" points="273.51747 107.055331 273.51747 23.9174879 243.781142 23.9174879 243.781142 6.98958552 323.419814 6.98958552 323.419814 23.9174879 293.751845 23.9174879 293.751845 107.055331"></polygon>
                <path d="M325.896376,69.7866429 C325.896376,63.4159269 327.468642,57.249984 330.613173,51.288814 C333.757705,45.3276441 338.212457,40.7771327 343.977431,37.6372798 C349.742405,34.497427 356.17958,32.9275005 363.288955,32.9275005 C374.272028,32.9275005 383.272679,36.4882757 390.290908,43.609826 C397.309137,50.7313764 400.818251,59.7300127 400.818251,70.605735 C400.818251,81.5724674 397.274957,90.662114 390.188369,97.8746745 C383.10178,105.087235 374.180882,108.693515 363.425673,108.693515 C356.772028,108.693515 350.425999,107.191847 344.387587,104.188509 C338.349176,101.185172 333.757705,96.7825518 330.613173,90.9806498 C327.468642,85.1787477 325.896376,78.1140788 325.896376,69.7866429 Z M345.583876,70.810508 C345.583876,78.000316 347.292861,83.5064348 350.71083,87.3288644 C354.128798,91.1512939 358.344293,93.0625087 363.357314,93.0625087 C368.370335,93.0625087 372.574436,91.1512939 375.969619,87.3288644 C379.364801,83.5064348 381.062392,77.9548109 381.062392,70.6739926 C381.062392,63.5751948 379.364801,58.1145811 375.969619,54.2921516 C372.574436,50.469722 368.370335,48.5585072 363.357314,48.5585072 C358.344293,48.5585072 354.128798,50.469722 350.71083,54.2921516 C347.292861,58.1145811 345.583876,63.6206999 345.583876,70.810508 Z" id="形状" fill="#3A87FF" fill-rule="nonzero"></path>
                <polygon id="路径备份-2" stroke="#3A87FF" stroke-width="8" fill-rule="nonzero" points="419 8.98660995 437.66092 8.98660995 504 108.837832 484.586782 108.837832"></polygon>
                <path d="M453.102,64.7955855 L457.955,72.2035855 L431,111 L421,111 L453.102,64.7955855 Z M503.265813,6.98958552 L467.746,58.1125855 L462.864,50.7455855 L493.265813,6.98958552 L503.265813,6.98958552 Z" id="形状结合" fill="#3A87FF"></path>
            </g>
        </g>
    </g>
</svg>